<svg xmlns="http://www.w3.org/2000/svg" version="1.1" xmlns:xlink="http://www.w3.org/1999/xlink" width="1000" height="1000"><g clip-path="url(#SvgjsClipPath1126)"><rect width="1000" height="1000" fill="#090302"></rect><g transform="matrix(2.1167685301546695,0,0,2.1167685301546695,0,0.00003175152795620306)"><svg xmlns="http://www.w3.org/2000/svg" version="1.1" xmlns:xlink="http://www.w3.org/1999/xlink" width="472.41821" height="472.41818"><svg id="visual" viewBox="0 0 472.41821 472.41818" width="472.41821" height="472.41818" version="1.1" xmlns="http://www.w3.org/2000/svg" xmlns:svg="http://www.w3.org/2000/svg">
  <defs id="defs1">
    <clipPath clipPathUnits="userSpaceOnUse" id="clipPath2">
      <rect style="fill:#d23041;fill-rule:evenodd" id="rect3" width="472.41821" height="472.41821" x="212.10614" y="67.488312"></rect>
    </clipPath>
  <clipPath id="SvgjsClipPath1126"><rect width="1000" height="1000" x="0" y="0" rx="350" ry="350"></rect></clipPath></defs>
  <rect x="0" y="0" width="900" height="600" fill="#090302" id="rect1" clip-path="url(#clipPath2)" transform="translate(-212.10614,-67.488312)"></rect>
  <g id="g2" transform="translate(-212.10614,-67.488312)">
    <g transform="translate(443.10474,256.46298)" id="g1">
      <path d="m 49.3,-54.1 c 43.3,-6.3 126.9,-51.1 125.4,-48.5 C 173.2,-100 86.6,-50 68,-10.8 49.4,28.5 98.7,57 103.9,65.9 c 5.2,9 -33.9,-1.6 -58.6,21 -24.6,22.6 -35,78.3 -55.6,96.2 -20.7,17.9 -51.7,-2 -53.6,-37.8 -1.9,-35.7 25.4,-87.3 7.2,-114.1 -18.1,-26.9 -81.7,-29 -99,-41.2 -17.4,-12.2 11.6,-34.3 43.2,-37.8 31.7,-3.5 66.1,11.8 85.3,4.2 19.2,-7.6 23.2,-38 26.7,-37.1 3.5,0.8 6.5,33 49.8,26.6" fill="#e3e3e3" id="path1"></path>
    </g>
  </g>
</svg></svg></g></g></svg>